<svg width="32" height="32" viewBox="0 0 32 32" fill="none" xmlns="http://www.w3.org/2000/svg">
  <!-- Background circle with gradient -->
  <defs>
    <linearGradient id="grad1" x1="0%" y1="0%" x2="100%" y2="100%">
      <stop offset="0%" style="stop-color:#00BCD4;stop-opacity:1" />
      <stop offset="100%" style="stop-color:#FF8C42;stop-opacity:1" />
    </linearGradient>
  </defs>
  
  <!-- Main circle background -->
  <circle cx="16" cy="16" r="15" fill="url(#grad1)" stroke="#2F2E41" stroke-width="1"/>
  
  <!-- Stylized "S" for Senlysh -->
  <path d="M12 8C12 8 14 8 16 8C18 8 20 8 20 10C20 12 18 12 16 12C14 12 12 12 12 14C12 16 14 16 16 16C18 16 20 16 20 18C20 20 18 20 16 20C14 20 12 20 12 20" 
        stroke="white" stroke-width="2" stroke-linecap="round" fill="none"/>
  
  <!-- Small accent dot -->
  <circle cx="22" cy="10" r="2" fill="#FFD93D"/>
</svg>
