<svg width="32" height="32" viewBox="0 0 32 32" fill="none" xmlns="http://www.w3.org/2000/svg">
  <rect width="32" height="32" rx="6" fill="#1e40af"/>
  <path d="M16 8C11.5817 8 8 11.5817 8 16C8 20.4183 11.5817 24 16 24C20.4183 24 24 20.4183 24 16C24 11.5817 20.4183 8 16 8Z" fill="white"/>
  <path d="M16 12C13.7909 12 12 13.7909 12 16C12 18.2091 13.7909 20 16 20C18.2091 20 20 18.2091 20 16C20 13.7909 18.2091 12 16 12Z" fill="#1e40af"/>
  <circle cx="16" cy="16" r="2" fill="white"/>
  <path d="M12 16L14 16" stroke="white" stroke-width="1.5" stroke-linecap="round"/>
  <path d="M18 16L20 16" stroke="white" stroke-width="1.5" stroke-linecap="round"/>
  <path d="M16 12L16 14" stroke="white" stroke-width="1.5" stroke-linecap="round"/>
  <path d="M16 18L16 20" stroke="white" stroke-width="1.5" stroke-linecap="round"/>
</svg>




























